<mxfile host="app.diagrams.net" modified="2023-12-08T02:42:48.073Z" agent="Mozilla/5.0 (Windows NT 10.0; Win64; x64) AppleWebKit/537.36 (KHTML, like Gecko) Chrome/119.0.0.0 Safari/537.36" etag="AWBY3m4mVgc3iXDfHUlx" version="22.1.7" type="github">
  <diagram name="Página-1" id="Irts9sAhh_Vq2c4iicMf">
    <mxGraphModel dx="1264" dy="506" grid="1" gridSize="10" guides="1" tooltips="1" connect="1" arrows="1" fold="1" page="1" pageScale="1" pageWidth="827" pageHeight="1169" math="0" shadow="0">
      <root>
        <mxCell id="0" />
        <mxCell id="1" parent="0" />
        <mxCell id="wiEWjGaKoU1McQms9bvN-1" value="Inicio" style="ellipse;whiteSpace=wrap;html=1;" vertex="1" parent="1">
          <mxGeometry x="159.06" y="40" width="100" height="50" as="geometry" />
        </mxCell>
        <mxCell id="wiEWjGaKoU1McQms9bvN-11" value="Não" style="text;html=1;strokeColor=none;fillColor=none;align=center;verticalAlign=middle;whiteSpace=wrap;rounded=0;" vertex="1" parent="1">
          <mxGeometry x="310" y="330" width="60" height="30" as="geometry" />
        </mxCell>
        <mxCell id="wiEWjGaKoU1McQms9bvN-12" value="&lt;div style=&quot;text-align: center;&quot;&gt;Sim&lt;/div&gt;" style="text;whiteSpace=wrap;html=1;" vertex="1" parent="1">
          <mxGeometry x="160" y="420" width="30" as="geometry" />
        </mxCell>
        <mxCell id="wiEWjGaKoU1McQms9bvN-17" value="&lt;div style=&quot;border-color: var(--border-color); color: rgb(0, 0, 0); font-family: Helvetica; font-size: 12px; font-style: normal; font-variant-ligatures: normal; font-variant-caps: normal; font-weight: 400; letter-spacing: normal; orphans: 2; text-indent: 0px; text-transform: none; widows: 2; word-spacing: 0px; -webkit-text-stroke-width: 0px; text-decoration-thickness: initial; text-decoration-style: initial; text-decoration-color: initial; background-color: rgb(251, 251, 251); text-align: center;&quot;&gt;&lt;br&gt;&lt;/div&gt;" style="text;whiteSpace=wrap;html=1;" vertex="1" parent="1">
          <mxGeometry x="170" y="450" width="80" height="40" as="geometry" />
        </mxCell>
        <mxCell id="wiEWjGaKoU1McQms9bvN-32" value="&#xa;&lt;span style=&quot;color: rgb(0, 0, 0); font-family: Helvetica; font-size: 12px; font-style: normal; font-variant-ligatures: normal; font-variant-caps: normal; font-weight: 400; letter-spacing: normal; orphans: 2; text-align: left; text-indent: 0px; text-transform: none; widows: 2; word-spacing: 0px; -webkit-text-stroke-width: 0px; background-color: rgb(251, 251, 251); text-decoration-thickness: initial; text-decoration-style: initial; text-decoration-color: initial; float: none; display: inline !important;&quot;&gt;Agendamento Realizado&lt;/span&gt;&#xa;&#xa;" style="ellipse;whiteSpace=wrap;html=1;" vertex="1" parent="1">
          <mxGeometry x="1260" y="588.75" width="120" height="55" as="geometry" />
        </mxCell>
        <mxCell id="wiEWjGaKoU1McQms9bvN-33" value="&#xa;&lt;span style=&quot;color: rgb(0, 0, 0); font-family: Helvetica; font-size: 12px; font-style: normal; font-variant-ligatures: normal; font-variant-caps: normal; font-weight: 400; letter-spacing: normal; orphans: 2; text-align: left; text-indent: 0px; text-transform: none; widows: 2; word-spacing: 0px; -webkit-text-stroke-width: 0px; background-color: rgb(251, 251, 251); text-decoration-thickness: initial; text-decoration-style: initial; text-decoration-color: initial; float: none; display: inline !important;&quot;&gt;Realizar Cadastro&lt;/span&gt;&#xa;&#xa;" style="ellipse;whiteSpace=wrap;html=1;" vertex="1" parent="1">
          <mxGeometry x="400" y="330" width="120" height="60" as="geometry" />
        </mxCell>
        <mxCell id="wiEWjGaKoU1McQms9bvN-34" value="Pix/Dinheiro" style="ellipse;whiteSpace=wrap;html=1;" vertex="1" parent="1">
          <mxGeometry x="827" y="520" width="110" height="50" as="geometry" />
        </mxCell>
        <mxCell id="wiEWjGaKoU1McQms9bvN-35" value="Crédito/Débito" style="ellipse;whiteSpace=wrap;html=1;" vertex="1" parent="1">
          <mxGeometry x="827" y="672.5" width="110" height="50" as="geometry" />
        </mxCell>
        <mxCell id="wiEWjGaKoU1McQms9bvN-36" value="Verificar Saldo Bancário" style="ellipse;whiteSpace=wrap;html=1;" vertex="1" parent="1">
          <mxGeometry x="1050" y="780" width="120" height="70" as="geometry" />
        </mxCell>
        <mxCell id="wiEWjGaKoU1McQms9bvN-39" value="Realizar Pagamento" style="ellipse;whiteSpace=wrap;html=1;" vertex="1" parent="1">
          <mxGeometry x="310" y="590" width="120" height="55" as="geometry" />
        </mxCell>
        <mxCell id="wiEWjGaKoU1McQms9bvN-45" value="Realizar Check in" style="ellipse;whiteSpace=wrap;html=1;" vertex="1" parent="1">
          <mxGeometry x="160.94" y="160" width="98.12" height="80" as="geometry" />
        </mxCell>
        <mxCell id="wiEWjGaKoU1McQms9bvN-46" value="&lt;div style=&quot;border-color: var(--border-color);&quot;&gt;Verificar&amp;nbsp;&lt;/div&gt;&lt;div style=&quot;border-color: var(--border-color);&quot;&gt;Disponibilidade&lt;/div&gt;&lt;div style=&quot;border-color: var(--border-color);&quot;&gt;do(a) Doutor(a)&lt;/div&gt;" style="ellipse;whiteSpace=wrap;html=1;" vertex="1" parent="1">
          <mxGeometry x="150" y="470" width="120" height="60" as="geometry" />
        </mxCell>
        <mxCell id="wiEWjGaKoU1McQms9bvN-48" value="Paciente&amp;nbsp;&lt;br style=&quot;border-color: var(--border-color); text-align: left;&quot;&gt;&lt;span style=&quot;text-align: left;&quot;&gt;possui Cadastro?&lt;/span&gt;" style="rhombus;whiteSpace=wrap;html=1;" vertex="1" parent="1">
          <mxGeometry x="147.5" y="310" width="125" height="100" as="geometry" />
        </mxCell>
        <mxCell id="wiEWjGaKoU1McQms9bvN-50" value="Selecionar&amp;nbsp;&amp;nbsp;&lt;br style=&quot;border-color: var(--border-color); text-align: left;&quot;&gt;Forma de Pagamento" style="rhombus;whiteSpace=wrap;html=1;" vertex="1" parent="1">
          <mxGeometry x="560" y="570" width="140" height="102.5" as="geometry" />
        </mxCell>
        <mxCell id="wiEWjGaKoU1McQms9bvN-64" value="Aprovado?" style="rhombus;whiteSpace=wrap;html=1;" vertex="1" parent="1">
          <mxGeometry x="1040" y="562.5" width="140" height="107.5" as="geometry" />
        </mxCell>
        <mxCell id="wiEWjGaKoU1McQms9bvN-70" value="" style="endArrow=classic;html=1;rounded=0;entryX=0;entryY=0.5;entryDx=0;entryDy=0;exitX=1;exitY=0.5;exitDx=0;exitDy=0;" edge="1" parent="1" source="wiEWjGaKoU1McQms9bvN-50" target="wiEWjGaKoU1McQms9bvN-34">
          <mxGeometry width="50" height="50" relative="1" as="geometry">
            <mxPoint x="720" y="790" as="sourcePoint" />
            <mxPoint x="770" y="740" as="targetPoint" />
          </mxGeometry>
        </mxCell>
        <mxCell id="wiEWjGaKoU1McQms9bvN-71" value="" style="endArrow=classic;html=1;rounded=0;entryX=0;entryY=0.5;entryDx=0;entryDy=0;exitX=1;exitY=0.5;exitDx=0;exitDy=0;" edge="1" parent="1" source="wiEWjGaKoU1McQms9bvN-50" target="wiEWjGaKoU1McQms9bvN-35">
          <mxGeometry width="50" height="50" relative="1" as="geometry">
            <mxPoint x="800" y="810" as="sourcePoint" />
            <mxPoint x="850" y="760" as="targetPoint" />
          </mxGeometry>
        </mxCell>
        <mxCell id="wiEWjGaKoU1McQms9bvN-72" value="" style="endArrow=classic;html=1;rounded=0;entryX=0;entryY=0.5;entryDx=0;entryDy=0;exitX=1;exitY=0.5;exitDx=0;exitDy=0;" edge="1" parent="1" source="wiEWjGaKoU1McQms9bvN-35" target="wiEWjGaKoU1McQms9bvN-64">
          <mxGeometry width="50" height="50" relative="1" as="geometry">
            <mxPoint x="810" y="820" as="sourcePoint" />
            <mxPoint x="860" y="770" as="targetPoint" />
          </mxGeometry>
        </mxCell>
        <mxCell id="wiEWjGaKoU1McQms9bvN-73" value="" style="endArrow=classic;html=1;rounded=0;entryX=0;entryY=0.5;entryDx=0;entryDy=0;exitX=1;exitY=0.5;exitDx=0;exitDy=0;" edge="1" parent="1" source="wiEWjGaKoU1McQms9bvN-34" target="wiEWjGaKoU1McQms9bvN-64">
          <mxGeometry width="50" height="50" relative="1" as="geometry">
            <mxPoint x="920" y="612.5" as="sourcePoint" />
            <mxPoint x="970" y="562.5" as="targetPoint" />
          </mxGeometry>
        </mxCell>
        <mxCell id="wiEWjGaKoU1McQms9bvN-74" value="" style="endArrow=classic;html=1;rounded=0;entryX=0;entryY=0.5;entryDx=0;entryDy=0;exitX=1;exitY=0.5;exitDx=0;exitDy=0;" edge="1" parent="1" source="wiEWjGaKoU1McQms9bvN-39" target="wiEWjGaKoU1McQms9bvN-50">
          <mxGeometry width="50" height="50" relative="1" as="geometry">
            <mxPoint x="830" y="840" as="sourcePoint" />
            <mxPoint x="880" y="790" as="targetPoint" />
          </mxGeometry>
        </mxCell>
        <mxCell id="wiEWjGaKoU1McQms9bvN-76" value="" style="endArrow=classic;html=1;rounded=0;entryX=0.5;entryY=0;entryDx=0;entryDy=0;exitX=0.5;exitY=1;exitDx=0;exitDy=0;" edge="1" parent="1" source="wiEWjGaKoU1McQms9bvN-48" target="wiEWjGaKoU1McQms9bvN-46">
          <mxGeometry width="50" height="50" relative="1" as="geometry">
            <mxPoint x="310" y="470" as="sourcePoint" />
            <mxPoint x="350" y="420" as="targetPoint" />
          </mxGeometry>
        </mxCell>
        <mxCell id="wiEWjGaKoU1McQms9bvN-77" value="" style="endArrow=classic;html=1;rounded=0;entryX=0;entryY=0.5;entryDx=0;entryDy=0;exitX=1;exitY=0.5;exitDx=0;exitDy=0;" edge="1" parent="1" source="wiEWjGaKoU1McQms9bvN-48" target="wiEWjGaKoU1McQms9bvN-33">
          <mxGeometry width="50" height="50" relative="1" as="geometry">
            <mxPoint x="280" y="470" as="sourcePoint" />
            <mxPoint x="330" y="420" as="targetPoint" />
          </mxGeometry>
        </mxCell>
        <mxCell id="wiEWjGaKoU1McQms9bvN-78" value="" style="endArrow=classic;html=1;rounded=0;entryX=0.5;entryY=0;entryDx=0;entryDy=0;exitX=0.5;exitY=1;exitDx=0;exitDy=0;" edge="1" parent="1" source="wiEWjGaKoU1McQms9bvN-45" target="wiEWjGaKoU1McQms9bvN-48">
          <mxGeometry width="50" height="50" relative="1" as="geometry">
            <mxPoint x="340" y="40" as="sourcePoint" />
            <mxPoint x="208.75" y="180" as="targetPoint" />
          </mxGeometry>
        </mxCell>
        <mxCell id="wiEWjGaKoU1McQms9bvN-79" value="" style="endArrow=classic;html=1;rounded=0;entryX=0;entryY=0.5;entryDx=0;entryDy=0;exitX=0.5;exitY=1;exitDx=0;exitDy=0;" edge="1" parent="1" source="wiEWjGaKoU1McQms9bvN-46" target="wiEWjGaKoU1McQms9bvN-39">
          <mxGeometry width="50" height="50" relative="1" as="geometry">
            <mxPoint x="350" y="770" as="sourcePoint" />
            <mxPoint x="210" y="587.5" as="targetPoint" />
            <Array as="points">
              <mxPoint x="210" y="618" />
            </Array>
          </mxGeometry>
        </mxCell>
        <mxCell id="wiEWjGaKoU1McQms9bvN-81" value="" style="endArrow=classic;html=1;rounded=0;entryX=0.5;entryY=0;entryDx=0;entryDy=0;exitX=0.5;exitY=1;exitDx=0;exitDy=0;" edge="1" parent="1" source="wiEWjGaKoU1McQms9bvN-1" target="wiEWjGaKoU1McQms9bvN-45">
          <mxGeometry width="50" height="50" relative="1" as="geometry">
            <mxPoint x="209.5" y="10" as="sourcePoint" />
            <mxPoint x="210.5" y="70" as="targetPoint" />
          </mxGeometry>
        </mxCell>
        <mxCell id="wiEWjGaKoU1McQms9bvN-83" value="&lt;span style=&quot;color: rgb(0, 0, 0); font-family: Helvetica; font-size: 12px; font-style: normal; font-variant-ligatures: normal; font-variant-caps: normal; font-weight: 400; letter-spacing: normal; orphans: 2; text-align: center; text-indent: 0px; text-transform: none; widows: 2; word-spacing: 0px; -webkit-text-stroke-width: 0px; background-color: rgb(251, 251, 251); text-decoration-thickness: initial; text-decoration-style: initial; text-decoration-color: initial; float: none; display: inline !important;&quot;&gt;Não&lt;/span&gt;" style="text;whiteSpace=wrap;html=1;" vertex="1" parent="1">
          <mxGeometry x="1080" y="710" width="60" height="40" as="geometry" />
        </mxCell>
        <mxCell id="wiEWjGaKoU1McQms9bvN-84" value="&lt;div style=&quot;text-align: center;&quot;&gt;&lt;span style=&quot;background-color: initial;&quot;&gt;Sim&lt;/span&gt;&lt;/div&gt;" style="text;whiteSpace=wrap;html=1;" vertex="1" parent="1">
          <mxGeometry x="1190" y="585" width="40" height="40" as="geometry" />
        </mxCell>
        <mxCell id="wiEWjGaKoU1McQms9bvN-85" value="" style="endArrow=classic;html=1;rounded=0;entryX=0;entryY=0.5;entryDx=0;entryDy=0;exitX=1;exitY=0.5;exitDx=0;exitDy=0;" edge="1" parent="1" source="wiEWjGaKoU1McQms9bvN-64" target="wiEWjGaKoU1McQms9bvN-32">
          <mxGeometry width="50" height="50" relative="1" as="geometry">
            <mxPoint x="970" y="715" as="sourcePoint" />
            <mxPoint x="1050" y="626" as="targetPoint" />
          </mxGeometry>
        </mxCell>
        <mxCell id="wiEWjGaKoU1McQms9bvN-86" value="" style="endArrow=classic;html=1;rounded=0;entryX=0.5;entryY=0;entryDx=0;entryDy=0;exitX=0.5;exitY=1;exitDx=0;exitDy=0;" edge="1" parent="1" source="wiEWjGaKoU1McQms9bvN-64" target="wiEWjGaKoU1McQms9bvN-36">
          <mxGeometry width="50" height="50" relative="1" as="geometry">
            <mxPoint x="980" y="725" as="sourcePoint" />
            <mxPoint x="1060" y="636" as="targetPoint" />
          </mxGeometry>
        </mxCell>
        <mxCell id="wiEWjGaKoU1McQms9bvN-89" value="" style="endArrow=classic;html=1;rounded=0;exitX=0.5;exitY=1;exitDx=0;exitDy=0;entryX=1;entryY=0.5;entryDx=0;entryDy=0;" edge="1" parent="1" source="wiEWjGaKoU1McQms9bvN-33" target="wiEWjGaKoU1McQms9bvN-46">
          <mxGeometry width="50" height="50" relative="1" as="geometry">
            <mxPoint x="620" y="420" as="sourcePoint" />
            <mxPoint x="670" y="370" as="targetPoint" />
            <Array as="points">
              <mxPoint x="460" y="500" />
            </Array>
          </mxGeometry>
        </mxCell>
        <mxCell id="wiEWjGaKoU1McQms9bvN-90" value="FIM" style="ellipse;whiteSpace=wrap;html=1;" vertex="1" parent="1">
          <mxGeometry x="1450" y="590" width="110" height="50" as="geometry" />
        </mxCell>
        <mxCell id="wiEWjGaKoU1McQms9bvN-91" value="" style="endArrow=classic;html=1;rounded=0;entryX=0;entryY=0.5;entryDx=0;entryDy=0;exitX=1;exitY=0.5;exitDx=0;exitDy=0;" edge="1" parent="1" source="wiEWjGaKoU1McQms9bvN-32" target="wiEWjGaKoU1McQms9bvN-90">
          <mxGeometry width="50" height="50" relative="1" as="geometry">
            <mxPoint x="1241" y="540" as="sourcePoint" />
            <mxPoint x="1291" y="490" as="targetPoint" />
          </mxGeometry>
        </mxCell>
        <mxCell id="wiEWjGaKoU1McQms9bvN-92" value="FIM" style="ellipse;whiteSpace=wrap;html=1;" vertex="1" parent="1">
          <mxGeometry x="1230" y="780" width="90" height="75" as="geometry" />
        </mxCell>
        <mxCell id="wiEWjGaKoU1McQms9bvN-93" value="" style="endArrow=classic;html=1;rounded=0;entryX=0;entryY=0.5;entryDx=0;entryDy=0;exitX=1;exitY=0.5;exitDx=0;exitDy=0;" edge="1" parent="1" source="wiEWjGaKoU1McQms9bvN-36" target="wiEWjGaKoU1McQms9bvN-92">
          <mxGeometry width="50" height="50" relative="1" as="geometry">
            <mxPoint x="1130" y="710" as="sourcePoint" />
            <mxPoint x="1180" y="660" as="targetPoint" />
          </mxGeometry>
        </mxCell>
      </root>
    </mxGraphModel>
  </diagram>
</mxfile>
